<svg version="1.1" xmlns="http://www.w3.org/2000/svg" xmlns:xlink="http://www.w3.org/1999/xlink" width="654" height="1410" viewBox="0 0 654 1410"><defs/><g transform="matrix(1,0,0,1,0,0)"><g><g><g><path fill="none" stroke="#d3d3d3" paint-order="fill stroke markers" d=" M 0 0 L 1200 0" stroke-miterlimit="10" stroke-opacity="0.8" stroke-dasharray="5"/></g><g><path fill="none" stroke="#d3d3d3" paint-order="fill stroke markers" d=" M 0 0 L 0 800" stroke-miterlimit="10" stroke-opacity="0.8" stroke-dasharray="5"/></g></g><g id="_9575E7C0-D496-4BAE-A9B4-36C1FB71C8E3" transform="matrix(1,0,0,1,302,50)"><g><path fill="#292A2D" stroke="#9876AA" id="_9575E7C0-D496-4BAE-A9B4-36C1FB71C8E3?shapeType=BACKGROUND" paint-order="fill stroke markers" d=" M 25 0 L 25 0 L 25 0 A 25 25 0 0 1 50 25 L 50 25 L 50 25 A 25 25 0 0 1 25 50 L 25 50 L 25 50 A 25 25 0 0 1 0 25.000000000000004 L 0 25 L 0 25.000000000000004 A 25 25 0 0 1 25 0 Z" stroke-miterlimit="10" stroke-width="2" stroke-dasharray=""/></g><g transform="matrix(1,0,0,1,7,29)"><text fill="#929292" stroke="none" font-family="Open Sans" font-size="12pt" font-style="normal" font-weight="normal" text-decoration="normal" x="0" y="0" text-anchor="start" dominant-baseline="alphabetic">Start</text></g></g><g id="_545BD15C-3EEA-411F-B1BA-C6054BC639B1" transform="matrix(1,0,0,1,202,229)"><g><path fill="#292A2D" stroke="#9876AA" id="_545BD15C-3EEA-411F-B1BA-C6054BC639B1?shapeType=BACKGROUND" paint-order="fill stroke markers" d=" M 0 5 L 0 5 L 0 5.000000000000001 A 5 5 0 0 1 5 0 L 245 0 L 245 0 L 245 0 A 5 5 0 0 1 250 5 L 250 85 L 250 85 L 250 85 A 5 5 0 0 1 245 90 L 5 90 L 5 90 L 5 90 A 5 5 0 0 1 0 85 Z" stroke-miterlimit="10" stroke-width="2" stroke-dasharray=""/></g><g transform="matrix(1,0,0,1,45,46)"><g id="_545BD15C-3EEA-411F-B1BA-C6054BC639B1"><path fill="#2A4E6C" stroke="#909090" id="_545BD15C-3EEA-411F-B1BA-C6054BC639B1" paint-order="fill stroke markers" d=" M 0 -25 L 0 -25 L 1.5308084989341915e-15 -25 A 25 25 0 0 1 25 0 L 25 0 L 25 0 A 25 25 0 0 1 1.5308084989341915e-15 25 L 0 25 L 1.5308084989341915e-15 25 A 25 25 0 0 1 -25 3.061616997868383e-15 L -25 0 L -25 3.061616997868383e-15 A 25 25 0 0 1 1.5308084989341915e-15 -25 Z" stroke-miterlimit="10" stroke-dasharray=""/></g><g><g transform="matrix(0.35,0,0,0.35,-11,-11)"><path fill="#C4C4C4" stroke="#505050" paint-order="fill stroke markers" d=" M 0 0 M 61.99 20.83 C 62.4 21.9 62.050000000000004 23.119999999999997 61.2 23.9 L 55.790000000000006 28.83 C 55.93000000000001 29.869999999999997 56.00000000000001 30.93 56.00000000000001 32 C 56.00000000000001 33.07 55.92000000000001 34.14 55.790000000000006 35.17 L 61.2 40.09 C 62.050000000000004 40.88 62.400000000000006 42.09 61.99 43.17 C 61.440000000000005 44.660000000000004 60.78 46.09 60.03 47.46 L 59.44 48.47 C 58.61 49.85 57.69 51.15 56.68 52.379999999999995 C 55.93 53.269999999999996 54.72 53.58 53.62 53.23 L 46.66 51.01 C 44.98 52.3 43.019999999999996 53.37 41.16 54.199999999999996 L 39.599999999999994 61.339999999999996 C 39.349999999999994 62.459999999999994 38.48 63.26 37.31999999999999 63.559999999999995 C 35.599999999999994 63.849999999999994 33.81999999999999 63.99999999999999 31.89999999999999 63.99999999999999 C 30.199999999999992 63.99999999999999 28.41999999999999 63.849999999999994 26.699999999999992 63.559999999999995 C 25.549999999999994 63.26 24.679999999999993 62.459999999999994 24.429999999999993 61.339999999999996 L 22.869999999999994 54.199999999999996 C 20.889999999999993 53.37 19.039999999999992 52.3 17.369999999999994 51.01 L 10.409999999999993 53.23 C 9.309999999999993 53.58 8.089999999999993 53.269999999999996 7.3499999999999925 52.379999999999995 C 6.339999999999993 51.13999999999999 5.409999999999993 49.839999999999996 4.589999999999993 48.47 L 3.999999999999993 47.46 C 3.239999999999993 46.1 2.579999999999993 44.660000000000004 2.029999999999993 43.17 C 1.6299999999999932 42.09 1.969999999999993 40.88 2.819999999999993 40.09 L 8.229999999999993 35.17 C 8.089999999999993 34.13 8.019999999999992 33.07 8.019999999999992 32 C 8.019999999999992 30.93 8.089999999999993 29.86 8.229999999999993 28.83 L 2.819999999999993 23.9 C 1.9599999999999933 23.11 1.6199999999999932 21.91 2.029999999999993 20.83 C 2.579999999999993 19.34 3.249999999999993 17.9 3.999999999999993 16.54 L 4.579999999999993 15.53 C 5.409999999999993 14.149999999999999 6.329999999999993 12.86 7.3499999999999925 11.62 C 8.089999999999993 10.729999999999999 9.309999999999992 10.42 10.409999999999993 10.77 L 17.369999999999994 12.99 C 19.039999999999992 11.7 20.889999999999993 10.620000000000001 22.869999999999994 9.81 L 24.429999999999993 2.670000000000001 C 24.679999999999993 1.540000000000001 25.549999999999994 0.6300000000000008 26.699999999999992 0.44000000000000083 C 28.429999999999993 0.15000000000000085 30.199999999999992 8.326672684688674e-16 32.00999999999999 8.326672684688674e-16 C 33.81999999999999 8.326672684688674e-16 35.599999999999994 0.15000000000000083 37.31999999999999 0.44000000000000083 C 38.46999999999999 0.6300000000000008 39.349999999999994 1.530000000000001 39.599999999999994 2.670000000000001 L 41.16 9.81 C 43.019999999999996 10.63 44.98 11.700000000000001 46.66 12.99 L 53.62 10.77 C 54.72 10.42 55.93 10.73 56.68 11.62 C 57.69 12.85 58.62 14.149999999999999 59.44 15.53 L 60.03 16.54 C 60.78 17.9 61.44 19.34 61.99 20.83 L 61.99 20.83 Z M 0 0 M 32 42 C 37.53 42 42 37.53 42 31.89 C 42 26.25 37.53 21.89 32 21.89 C 26.47 21.89 22 26.48 22 31.89 C 22 37.3 26.48 42 32 42 Z" stroke-miterlimit="10" stroke-dasharray=""/></g></g></g><g transform="matrix(1,0,0,1,224,6)"><g><path fill="white" stroke="white" paint-order="fill stroke markers" d=" M 9 0 L 11 0 L 10.999999999999998 0 A 9 9 0 0 1 20 9 L 20 11 L 20 11 A 9 9 0 0 1 11 20 L 9 20 L 9 20 A 9 9 0 0 1 0 11.000000000000002 L 0 9 L 0 9.000000000000002 A 9 9 0 0 1 8.999999999999998 0 Z" fill-opacity="0.001" stroke-miterlimit="10" stroke-opacity="0.001" stroke-dasharray=""/></g><g transform="matrix(2,0,0,2,0,0)"><path fill="#C97330" stroke="none" paint-order="stroke fill markers" d=" M 0 0 M 2.175 3.286 C 1.743 3.286 1.394 3.637 1.394 4.067 C 1.394 4.498 1.745 4.849 2.175 4.849 C 2.605 4.849 2.956 4.498 2.956 4.067 C 2.956 3.637 2.606 3.286 2.175 3.286 Z M 0 0 M 2.175 4.38 C 2.003 4.38 1.863 4.239 1.863 4.067 C 1.863 3.896 2.003 3.755 2.175 3.755 C 2.346 3.755 2.487 3.896 2.487 4.067 C 2.487 4.239 2.346 4.38 2.175 4.38 Z M 0 0 M 1.875 0.312 C 1.185 0.312 0.625 0.873 0.625 1.563 C 0.625 2.254 1.185 2.813 1.875 2.813 C 2.565 2.813 3.125 2.253 3.125 1.563 C 3.125 0.874 2.565 0.312 1.875 0.312 Z M 0 0 M 1.875 2.032 C 1.616 2.032 1.406 1.822 1.406 1.563 C 1.406 1.304 1.616 1.094 1.875 1.094 C 2.134 1.094 2.344 1.304 2.344 1.563 C 2.344 1.822 2.134 2.032 1.875 2.032 Z M 0 0 M 8.641 2.285 L 7.704 2.208 C 7.665 2.085 7.683 2.121 7.626 2 C 7.75 1.829 8.078 1.493 8.205 1.321 C 8.222 1.296 8.235 1.269 8.235 1.238 C 8.235 1.115 7.716 0.64 7.603 0.535 C 7.577 0.513 7.546 0.5 7.511 0.5 C 7.48 0.5 7.449 0.509 7.423 0.53 L 6.772 1.1 C 6.666 1.047 6.65 1.047 6.535 1.012 L 6.475 0.112 C 6.47 0.048 6.408 0 6.346 0 L 5.53 0 C 5.469 0 5.416 0.044 5.399 0.106 C 5.343 0.32 5.371 0.796 5.348 1.017 C 5.23 1.056 5.241 1.065 5.129 1.122 L 4.452 0.528 C 4.427 0.511 4.395 0.498 4.36 0.498 C 4.233 0.498 3.74 1.031 3.654 1.149 C 3.631 1.174 3.623 1.205 3.623 1.235 C 3.623 1.266 3.637 1.297 3.654 1.322 C 3.793 1.489 4.098 1.773 4.22 1.949 C 4.164 2.059 4.173 2.109 4.137 2.226 L 3.227 2.269 C 3.17 2.278 3.126 2.345 3.126 2.401 L 3.125 3.213 C 3.125 3.276 3.169 3.332 3.23 3.342 L 4.15 3.402 C 4.189 3.524 4.18 3.485 4.242 3.605 C 4.115 3.776 3.793 4.143 3.666 4.309 C 3.648 4.334 3.636 4.361 3.636 4.392 C 3.636 4.52 4.155 4.99 4.269 5.094 C 4.294 5.117 4.325 5.129 4.36 5.129 C 4.39 5.129 4.427 5.121 4.447 5.1 L 5.094 4.495 C 5.2 4.548 5.209 4.543 5.325 4.578 L 5.397 5.515 C 5.406 5.577 5.468 5.625 5.528 5.625 L 6.345 5.625 C 6.406 5.625 6.459 5.581 6.475 5.52 C 6.532 5.304 6.491 4.804 6.513 4.577 C 6.631 4.542 6.62 4.536 6.732 4.479 L 7.423 5.095 C 7.448 5.113 7.479 5.126 7.514 5.126 C 7.642 5.126 8.135 4.589 8.221 4.472 C 8.244 4.449 8.252 4.419 8.252 4.388 C 8.252 4.353 8.238 4.327 8.221 4.302 C 8.082 4.135 7.714 3.824 7.591 3.649 C 7.647 3.54 7.637 3.542 7.672 3.426 L 8.648 3.353 C 8.705 3.345 8.749 3.278 8.749 3.222 L 8.749 2.41 C 8.747 2.355 8.703 2.297 8.641 2.285 Z M 0 0 M 5.92 3.919 C 5.317 3.919 4.822 3.427 4.822 2.819 C 4.822 2.212 5.314 1.72 5.92 1.72 C 6.528 1.72 7.02 2.212 7.02 2.819 C 7.02 3.427 6.528 3.919 5.92 3.919 Z M 0 0 M 8.435 6.25 C 7.941 5.757 7.497 6.25 7.497 6.25 L 5.622 8.125 L 3.728 8.125 C 3.728 8.125 3.415 8.125 3.415 7.813 C 3.415 7.5 3.747 7.5 3.747 7.5 L 5.31 7.5 C 5.31 7.5 5.622 7.5 5.622 7.187 C 5.622 6.875 5.31 6.875 5.31 6.875 L 1.882 6.87 C 1.683 6.865 1.305 6.905 0.944 7.304 L 0 8.301 L 1.872 10 L 2.497 9.374 L 6.117 9.374 C 6.2 9.374 6.28 9.342 6.339 9.283 L 6.872 8.75 L 8.435 7.187 C 8.435 7.187 8.927 6.743 8.435 6.25 Z"/></g></g><g transform="matrix(1,0,0,1,117,70)"><g><path fill="white" stroke="white" paint-order="fill stroke markers" d=" M 9 0 L 11 0 L 10.999999999999998 0 A 9 9 0 0 1 20 9 L 20 11 L 20 11 A 9 9 0 0 1 11 20 L 9 20 L 9 20 A 9 9 0 0 1 0 11.000000000000002 L 0 9 L 0 9.000000000000002 A 9 9 0 0 1 8.999999999999998 0 Z" fill-opacity="0.001" stroke-miterlimit="10" stroke-opacity="0.001" stroke-dasharray=""/></g><g><path fill="#3E86A0" stroke="#3E86A0" paint-order="fill stroke markers" d=" M 0 0 M 15.26 3.1 L 0.42 3.1 C 0.189 3.1 0 2.911 0 2.68 L 0 1.56 C 0 1.329 0.189 1.14 0.42 1.14 L 15.26 1.14 C 15.491 1.14 15.68 1.329 15.68 1.56 L 15.68 2.68 C 15.68 2.911 15.491 3.1 15.26 3.1 Z M 0 0 M 15.26 8.7 L 0.42 8.7 C 0.189 8.7 0 8.511 0 8.28 L 0 7.16 C 0 6.929 0.189 6.74 0.42 6.74 L 15.26 6.74 C 15.491 6.74 15.68 6.929 15.68 7.16 L 15.68 8.28 C 15.68 8.511 15.491 8.7 15.26 8.7 Z M 0 0 M 15.26 14.3 L 0.42 14.3 C 0.189 14.3 0 14.111 0 13.88 L 0 12.76 C 0 12.529 0.189 12.34 0.42 12.34 L 15.26 12.34 C 15.491 12.34 15.68 12.529 15.68 12.76 L 15.68 13.88 C 15.68 14.111 15.491 14.3 15.26 14.3 Z" stroke-miterlimit="10" stroke-dasharray=""/></g></g><g transform="matrix(1,0,0,1,80,24)"><text fill="#FBAF4F" stroke="none" font-family="Open Sans" font-size="12pt" font-style="normal" font-weight="normal" text-decoration="normal" x="70.77734375" y="12" text-anchor="middle" dominant-baseline="central">CheckNamespaceE</text><text fill="#FBAF4F" stroke="none" font-family="Open Sans" font-size="12pt" font-style="normal" font-weight="normal" text-decoration="normal" x="70.77734375" y="27" text-anchor="middle" dominant-baseline="central">             xists             </text></g></g><g id="_1E92B44F-68F0-4665-8486-3EF500AE3A3C" transform="matrix(1,0,0,1,252,446)"><g><path fill="#292A2D" stroke="#9876AA" id="_1E92B44F-68F0-4665-8486-3EF500AE3A3C?shapeType=BACKGROUND" paint-order="fill stroke markers" d=" M 0 5 L 0 5 L 0 5.000000000000001 A 5 5 0 0 1 5 0 L 245 0 L 245 0 L 245 0 A 5 5 0 0 1 250 5 L 250 85 L 250 85 L 250 85 A 5 5 0 0 1 245 90 L 5 90 L 5 90 L 5 90 A 5 5 0 0 1 0 85 Z" stroke-miterlimit="10" stroke-width="2" stroke-dasharray=""/></g><g transform="matrix(1,0,0,1,45,46)"><g id="_1E92B44F-68F0-4665-8486-3EF500AE3A3C"><path fill="#00595A" stroke="#909090" id="_1E92B44F-68F0-4665-8486-3EF500AE3A3C" paint-order="fill stroke markers" d=" M 0 -25 L 0 -25 L 1.5308084989341915e-15 -25 A 25 25 0 0 1 25 0 L 25 0 L 25 0 A 25 25 0 0 1 1.5308084989341915e-15 25 L 0 25 L 1.5308084989341915e-15 25 A 25 25 0 0 1 -25 3.061616997868383e-15 L -25 0 L -25 3.061616997868383e-15 A 25 25 0 0 1 1.5308084989341915e-15 -25 Z" stroke-miterlimit="10" stroke-dasharray=""/></g><g><g transform="matrix(0.35,0,0,0.35,-11,-11)"><path fill="#C4C4C4" stroke="#505050" paint-order="fill stroke markers" d=" M 0 0 M 60.6 46.54 L 54.07 46.54 L 54.07 37.83 C 54.01 36.449999999999996 53.35 35.14 52.24 34.309999999999995 L 44.82 28.749999999999996 L 44.82 28.749999999999996 L 36.41 22.389999999999997 L 36.41 4.4 C 36.4 1.87 34.26 -0.17 31.69 0.01 C 29.44 0.17 27.6 2.23 27.6 4.49 L 27.6 22.41 L 19.19 28.72 L 19.19 28.72 L 11.770000000000001 34.269999999999996 C 10.660000000000002 35.099999999999994 10.010000000000002 36.41 9.940000000000001 37.79 L 9.940000000000001 46.5 L 3.4 46.5 C 0.45999999999999996 46.47 -1.02 50.03 1.06 52.11 L 12.07 63 C 13.36 64.29 15.45 64.29 16.75 63 L 27.759999999999998 52.11 C 29.839999999999996 50.15 28.369999999999997 46.59 25.419999999999998 46.64 L 18.75 46.64 L 18.75 40.01 C 18.75 40.01 26.97 33.93 32.03 30.14 C 36.99 33.87 45.230000000000004 40.06 45.27 40.04 L 45.27 46.67 L 38.6 46.67 C 35.660000000000004 46.620000000000005 34.18 50.18 36.260000000000005 52.14 L 47.27 63.03 C 48.56 64.32000000000001 50.650000000000006 64.32000000000001 51.95 63.03 L 62.96 52.14 C 65.04 50.06 63.56 46.5 60.620000000000005 46.53 Z" stroke-miterlimit="10" stroke-dasharray=""/></g></g></g><g transform="matrix(1,0,0,1,224,6)"><g><path fill="white" stroke="white" paint-order="fill stroke markers" d=" M 9 0 L 11 0 L 10.999999999999998 0 A 9 9 0 0 1 20 9 L 20 11 L 20 11 A 9 9 0 0 1 11 20 L 9 20 L 9 20 A 9 9 0 0 1 0 11.000000000000002 L 0 9 L 0 9.000000000000002 A 9 9 0 0 1 8.999999999999998 0 Z" fill-opacity="0.001" stroke-miterlimit="10" stroke-opacity="0.001" stroke-dasharray=""/></g><g transform="matrix(2,0,0,2,0,0)"><path fill="#C97330" stroke="none" paint-order="stroke fill markers" d=" M 0 0 M 7.382 2.142 L 9.781 4.542 C 9.921 4.683 10 4.876 10 5.076 C 10 5.274 9.921 5.467 9.781 5.608 L 7.382 8.008 C 7.256 8.132 7.088 8.2 6.912 8.2 C 6.547 8.2 6.25 7.903 6.25 7.538 L 6.25 6.326 L 3.75 6.326 C 3.405 6.326 3.126 6.046 3.126 5.7 L 3.126 4.45 C 3.126 4.105 3.405 3.826 3.75 3.826 L 6.25 3.826 L 6.25 2.612 C 6.25 2.247 6.547 1.95 6.912 1.95 C 7.088 1.95 7.256 2.02 7.382 2.142 Z M 0 0 M 3.126 1.95 L 1.876 1.95 C 1.53 1.95 1.25 2.23 1.25 2.576 L 1.25 7.576 C 1.25 7.92 1.53 8.2 1.876 8.2 L 3.126 8.2 C 3.47 8.2 3.75 8.48 3.75 8.826 C 3.75 9.17 3.47 9.45 3.126 9.45 L 1.876 9.45 C 0.84 9.45 0 8.61 0 7.576 L 0 2.576 C 0 1.54 0.84 0.7 1.876 0.7 L 3.126 0.7 C 3.47 0.7 3.75 0.98 3.75 1.326 C 3.75 1.67 3.47 1.95 3.126 1.95 Z"/></g></g><g transform="matrix(1,0,0,1,80,24)"><text fill="#FBAF4F" stroke="none" font-family="Open Sans" font-size="12pt" font-style="normal" font-weight="normal" text-decoration="normal" x="70.98828125" y="12" text-anchor="middle" dominant-baseline="central">EvaluateNamespac</text><text fill="#FBAF4F" stroke="none" font-family="Open Sans" font-size="12pt" font-style="normal" font-weight="normal" text-decoration="normal" x="70.98828125" y="27" text-anchor="middle" dominant-baseline="central">           eExists           </text></g></g><g id="_165AD709-CF58-4C9E-B74D-B63E350E3C33" transform="matrix(1,0,0,1,354,663)"><g><path fill="#292A2D" stroke="#9876AA" id="_165AD709-CF58-4C9E-B74D-B63E350E3C33?shapeType=BACKGROUND" paint-order="fill stroke markers" d=" M 0 5 L 0 5 L 0 5.000000000000001 A 5 5 0 0 1 5 0 L 245 0 L 245 0 L 245 0 A 5 5 0 0 1 250 5 L 250 85 L 250 85 L 250 85 A 5 5 0 0 1 245 90 L 5 90 L 5 90 L 5 90 A 5 5 0 0 1 0 85 Z" stroke-miterlimit="10" stroke-width="2" stroke-dasharray=""/></g><g transform="matrix(1,0,0,1,45,46)"><g id="_165AD709-CF58-4C9E-B74D-B63E350E3C33"><path fill="#2A4E6C" stroke="#909090" id="_165AD709-CF58-4C9E-B74D-B63E350E3C33" paint-order="fill stroke markers" d=" M 0 -25 L 0 -25 L 1.5308084989341915e-15 -25 A 25 25 0 0 1 25 0 L 25 0 L 25 0 A 25 25 0 0 1 1.5308084989341915e-15 25 L 0 25 L 1.5308084989341915e-15 25 A 25 25 0 0 1 -25 3.061616997868383e-15 L -25 0 L -25 3.061616997868383e-15 A 25 25 0 0 1 1.5308084989341915e-15 -25 Z" stroke-miterlimit="10" stroke-dasharray=""/></g><g><g transform="matrix(0.35,0,0,0.35,-11,-11)"><path fill="#C4C4C4" stroke="#505050" paint-order="fill stroke markers" d=" M 0 0 M 61.99 20.83 C 62.4 21.9 62.050000000000004 23.119999999999997 61.2 23.9 L 55.790000000000006 28.83 C 55.93000000000001 29.869999999999997 56.00000000000001 30.93 56.00000000000001 32 C 56.00000000000001 33.07 55.92000000000001 34.14 55.790000000000006 35.17 L 61.2 40.09 C 62.050000000000004 40.88 62.400000000000006 42.09 61.99 43.17 C 61.440000000000005 44.660000000000004 60.78 46.09 60.03 47.46 L 59.44 48.47 C 58.61 49.85 57.69 51.15 56.68 52.379999999999995 C 55.93 53.269999999999996 54.72 53.58 53.62 53.23 L 46.66 51.01 C 44.98 52.3 43.019999999999996 53.37 41.16 54.199999999999996 L 39.599999999999994 61.339999999999996 C 39.349999999999994 62.459999999999994 38.48 63.26 37.31999999999999 63.559999999999995 C 35.599999999999994 63.849999999999994 33.81999999999999 63.99999999999999 31.89999999999999 63.99999999999999 C 30.199999999999992 63.99999999999999 28.41999999999999 63.849999999999994 26.699999999999992 63.559999999999995 C 25.549999999999994 63.26 24.679999999999993 62.459999999999994 24.429999999999993 61.339999999999996 L 22.869999999999994 54.199999999999996 C 20.889999999999993 53.37 19.039999999999992 52.3 17.369999999999994 51.01 L 10.409999999999993 53.23 C 9.309999999999993 53.58 8.089999999999993 53.269999999999996 7.3499999999999925 52.379999999999995 C 6.339999999999993 51.13999999999999 5.409999999999993 49.839999999999996 4.589999999999993 48.47 L 3.999999999999993 47.46 C 3.239999999999993 46.1 2.579999999999993 44.660000000000004 2.029999999999993 43.17 C 1.6299999999999932 42.09 1.969999999999993 40.88 2.819999999999993 40.09 L 8.229999999999993 35.17 C 8.089999999999993 34.13 8.019999999999992 33.07 8.019999999999992 32 C 8.019999999999992 30.93 8.089999999999993 29.86 8.229999999999993 28.83 L 2.819999999999993 23.9 C 1.9599999999999933 23.11 1.6199999999999932 21.91 2.029999999999993 20.83 C 2.579999999999993 19.34 3.249999999999993 17.9 3.999999999999993 16.54 L 4.579999999999993 15.53 C 5.409999999999993 14.149999999999999 6.329999999999993 12.86 7.3499999999999925 11.62 C 8.089999999999993 10.729999999999999 9.309999999999992 10.42 10.409999999999993 10.77 L 17.369999999999994 12.99 C 19.039999999999992 11.7 20.889999999999993 10.620000000000001 22.869999999999994 9.81 L 24.429999999999993 2.670000000000001 C 24.679999999999993 1.540000000000001 25.549999999999994 0.6300000000000008 26.699999999999992 0.44000000000000083 C 28.429999999999993 0.15000000000000085 30.199999999999992 8.326672684688674e-16 32.00999999999999 8.326672684688674e-16 C 33.81999999999999 8.326672684688674e-16 35.599999999999994 0.15000000000000083 37.31999999999999 0.44000000000000083 C 38.46999999999999 0.6300000000000008 39.349999999999994 1.530000000000001 39.599999999999994 2.670000000000001 L 41.16 9.81 C 43.019999999999996 10.63 44.98 11.700000000000001 46.66 12.99 L 53.62 10.77 C 54.72 10.42 55.93 10.73 56.68 11.62 C 57.69 12.85 58.62 14.149999999999999 59.44 15.53 L 60.03 16.54 C 60.78 17.9 61.44 19.34 61.99 20.83 L 61.99 20.83 Z M 0 0 M 32 42 C 37.53 42 42 37.53 42 31.89 C 42 26.25 37.53 21.89 32 21.89 C 26.47 21.89 22 26.48 22 31.89 C 22 37.3 26.48 42 32 42 Z" stroke-miterlimit="10" stroke-dasharray=""/></g></g></g><g transform="matrix(1,0,0,1,224,6)"><g><path fill="white" stroke="white" paint-order="fill stroke markers" d=" M 9 0 L 11 0 L 10.999999999999998 0 A 9 9 0 0 1 20 9 L 20 11 L 20 11 A 9 9 0 0 1 11 20 L 9 20 L 9 20 A 9 9 0 0 1 0 11.000000000000002 L 0 9 L 0 9.000000000000002 A 9 9 0 0 1 8.999999999999998 0 Z" fill-opacity="0.001" stroke-miterlimit="10" stroke-opacity="0.001" stroke-dasharray=""/></g><g transform="matrix(2,0,0,2,0,0)"><path fill="#C97330" stroke="none" paint-order="stroke fill markers" d=" M 0 0 M 2.175 3.286 C 1.743 3.286 1.394 3.637 1.394 4.067 C 1.394 4.498 1.745 4.849 2.175 4.849 C 2.605 4.849 2.956 4.498 2.956 4.067 C 2.956 3.637 2.606 3.286 2.175 3.286 Z M 0 0 M 2.175 4.38 C 2.003 4.38 1.863 4.239 1.863 4.067 C 1.863 3.896 2.003 3.755 2.175 3.755 C 2.346 3.755 2.487 3.896 2.487 4.067 C 2.487 4.239 2.346 4.38 2.175 4.38 Z M 0 0 M 1.875 0.312 C 1.185 0.312 0.625 0.873 0.625 1.563 C 0.625 2.254 1.185 2.813 1.875 2.813 C 2.565 2.813 3.125 2.253 3.125 1.563 C 3.125 0.874 2.565 0.312 1.875 0.312 Z M 0 0 M 1.875 2.032 C 1.616 2.032 1.406 1.822 1.406 1.563 C 1.406 1.304 1.616 1.094 1.875 1.094 C 2.134 1.094 2.344 1.304 2.344 1.563 C 2.344 1.822 2.134 2.032 1.875 2.032 Z M 0 0 M 8.641 2.285 L 7.704 2.208 C 7.665 2.085 7.683 2.121 7.626 2 C 7.75 1.829 8.078 1.493 8.205 1.321 C 8.222 1.296 8.235 1.269 8.235 1.238 C 8.235 1.115 7.716 0.64 7.603 0.535 C 7.577 0.513 7.546 0.5 7.511 0.5 C 7.48 0.5 7.449 0.509 7.423 0.53 L 6.772 1.1 C 6.666 1.047 6.65 1.047 6.535 1.012 L 6.475 0.112 C 6.47 0.048 6.408 0 6.346 0 L 5.53 0 C 5.469 0 5.416 0.044 5.399 0.106 C 5.343 0.32 5.371 0.796 5.348 1.017 C 5.23 1.056 5.241 1.065 5.129 1.122 L 4.452 0.528 C 4.427 0.511 4.395 0.498 4.36 0.498 C 4.233 0.498 3.74 1.031 3.654 1.149 C 3.631 1.174 3.623 1.205 3.623 1.235 C 3.623 1.266 3.637 1.297 3.654 1.322 C 3.793 1.489 4.098 1.773 4.22 1.949 C 4.164 2.059 4.173 2.109 4.137 2.226 L 3.227 2.269 C 3.17 2.278 3.126 2.345 3.126 2.401 L 3.125 3.213 C 3.125 3.276 3.169 3.332 3.23 3.342 L 4.15 3.402 C 4.189 3.524 4.18 3.485 4.242 3.605 C 4.115 3.776 3.793 4.143 3.666 4.309 C 3.648 4.334 3.636 4.361 3.636 4.392 C 3.636 4.52 4.155 4.99 4.269 5.094 C 4.294 5.117 4.325 5.129 4.36 5.129 C 4.39 5.129 4.427 5.121 4.447 5.1 L 5.094 4.495 C 5.2 4.548 5.209 4.543 5.325 4.578 L 5.397 5.515 C 5.406 5.577 5.468 5.625 5.528 5.625 L 6.345 5.625 C 6.406 5.625 6.459 5.581 6.475 5.52 C 6.532 5.304 6.491 4.804 6.513 4.577 C 6.631 4.542 6.62 4.536 6.732 4.479 L 7.423 5.095 C 7.448 5.113 7.479 5.126 7.514 5.126 C 7.642 5.126 8.135 4.589 8.221 4.472 C 8.244 4.449 8.252 4.419 8.252 4.388 C 8.252 4.353 8.238 4.327 8.221 4.302 C 8.082 4.135 7.714 3.824 7.591 3.649 C 7.647 3.54 7.637 3.542 7.672 3.426 L 8.648 3.353 C 8.705 3.345 8.749 3.278 8.749 3.222 L 8.749 2.41 C 8.747 2.355 8.703 2.297 8.641 2.285 Z M 0 0 M 5.92 3.919 C 5.317 3.919 4.822 3.427 4.822 2.819 C 4.822 2.212 5.314 1.72 5.92 1.72 C 6.528 1.72 7.02 2.212 7.02 2.819 C 7.02 3.427 6.528 3.919 5.92 3.919 Z M 0 0 M 8.435 6.25 C 7.941 5.757 7.497 6.25 7.497 6.25 L 5.622 8.125 L 3.728 8.125 C 3.728 8.125 3.415 8.125 3.415 7.813 C 3.415 7.5 3.747 7.5 3.747 7.5 L 5.31 7.5 C 5.31 7.5 5.622 7.5 5.622 7.187 C 5.622 6.875 5.31 6.875 5.31 6.875 L 1.882 6.87 C 1.683 6.865 1.305 6.905 0.944 7.304 L 0 8.301 L 1.872 10 L 2.497 9.374 L 6.117 9.374 C 6.2 9.374 6.28 9.342 6.339 9.283 L 6.872 8.75 L 8.435 7.187 C 8.435 7.187 8.927 6.743 8.435 6.25 Z"/></g></g><g transform="matrix(1,0,0,1,117,70)"><g><path fill="white" stroke="white" paint-order="fill stroke markers" d=" M 9 0 L 11 0 L 10.999999999999998 0 A 9 9 0 0 1 20 9 L 20 11 L 20 11 A 9 9 0 0 1 11 20 L 9 20 L 9 20 A 9 9 0 0 1 0 11.000000000000002 L 0 9 L 0 9.000000000000002 A 9 9 0 0 1 8.999999999999998 0 Z" fill-opacity="0.001" stroke-miterlimit="10" stroke-opacity="0.001" stroke-dasharray=""/></g><g><path fill="#3E86A0" stroke="#3E86A0" paint-order="fill stroke markers" d=" M 0 0 M 15.26 3.1 L 0.42 3.1 C 0.189 3.1 0 2.911 0 2.68 L 0 1.56 C 0 1.329 0.189 1.14 0.42 1.14 L 15.26 1.14 C 15.491 1.14 15.68 1.329 15.68 1.56 L 15.68 2.68 C 15.68 2.911 15.491 3.1 15.26 3.1 Z M 0 0 M 15.26 8.7 L 0.42 8.7 C 0.189 8.7 0 8.511 0 8.28 L 0 7.16 C 0 6.929 0.189 6.74 0.42 6.74 L 15.26 6.74 C 15.491 6.74 15.68 6.929 15.68 7.16 L 15.68 8.28 C 15.68 8.511 15.491 8.7 15.26 8.7 Z M 0 0 M 15.26 14.3 L 0.42 14.3 C 0.189 14.3 0 14.111 0 13.88 L 0 12.76 C 0 12.529 0.189 12.34 0.42 12.34 L 15.26 12.34 C 15.491 12.34 15.68 12.529 15.68 12.76 L 15.68 13.88 C 15.68 14.111 15.491 14.3 15.26 14.3 Z" stroke-miterlimit="10" stroke-dasharray=""/></g></g><g transform="matrix(1,0,0,1,80,24)"><text fill="#FBAF4F" stroke="none" font-family="Open Sans" font-size="12pt" font-style="normal" font-weight="normal" text-decoration="normal" x="71.02734375" y="12" text-anchor="middle" dominant-baseline="central">NamespaceExistsN</text><text fill="#FBAF4F" stroke="none" font-family="Open Sans" font-size="12pt" font-style="normal" font-weight="normal" text-decoration="normal" x="71.02734375" y="27" text-anchor="middle" dominant-baseline="central">        otification        </text></g></g><g id="_531DB36F-321A-492A-9930-99C954D4DF11" transform="matrix(1,0,0,1,50,663)"><g><path fill="#292A2D" stroke="#9876AA" id="_531DB36F-321A-492A-9930-99C954D4DF11?shapeType=BACKGROUND" paint-order="fill stroke markers" d=" M 0 5 L 0 5 L 0 5.000000000000001 A 5 5 0 0 1 5 0 L 245 0 L 245 0 L 245 0 A 5 5 0 0 1 250 5 L 250 85 L 250 85 L 250 85 A 5 5 0 0 1 245 90 L 5 90 L 5 90 L 5 90 A 5 5 0 0 1 0 85 Z" stroke-miterlimit="10" stroke-width="2" stroke-dasharray=""/></g><g transform="matrix(1,0,0,1,45,46)"><g id="_531DB36F-321A-492A-9930-99C954D4DF11"><path fill="#2A4E6C" stroke="#909090" id="_531DB36F-321A-492A-9930-99C954D4DF11" paint-order="fill stroke markers" d=" M 0 -25 L 0 -25 L 1.5308084989341915e-15 -25 A 25 25 0 0 1 25 0 L 25 0 L 25 0 A 25 25 0 0 1 1.5308084989341915e-15 25 L 0 25 L 1.5308084989341915e-15 25 A 25 25 0 0 1 -25 3.061616997868383e-15 L -25 0 L -25 3.061616997868383e-15 A 25 25 0 0 1 1.5308084989341915e-15 -25 Z" stroke-miterlimit="10" stroke-dasharray=""/></g><g><g transform="matrix(0.35,0,0,0.35,-11,-11)"><path fill="#C4C4C4" stroke="#505050" paint-order="fill stroke markers" d=" M 0 0 M 61.99 20.83 C 62.4 21.9 62.050000000000004 23.119999999999997 61.2 23.9 L 55.790000000000006 28.83 C 55.93000000000001 29.869999999999997 56.00000000000001 30.93 56.00000000000001 32 C 56.00000000000001 33.07 55.92000000000001 34.14 55.790000000000006 35.17 L 61.2 40.09 C 62.050000000000004 40.88 62.400000000000006 42.09 61.99 43.17 C 61.440000000000005 44.660000000000004 60.78 46.09 60.03 47.46 L 59.44 48.47 C 58.61 49.85 57.69 51.15 56.68 52.379999999999995 C 55.93 53.269999999999996 54.72 53.58 53.62 53.23 L 46.66 51.01 C 44.98 52.3 43.019999999999996 53.37 41.16 54.199999999999996 L 39.599999999999994 61.339999999999996 C 39.349999999999994 62.459999999999994 38.48 63.26 37.31999999999999 63.559999999999995 C 35.599999999999994 63.849999999999994 33.81999999999999 63.99999999999999 31.89999999999999 63.99999999999999 C 30.199999999999992 63.99999999999999 28.41999999999999 63.849999999999994 26.699999999999992 63.559999999999995 C 25.549999999999994 63.26 24.679999999999993 62.459999999999994 24.429999999999993 61.339999999999996 L 22.869999999999994 54.199999999999996 C 20.889999999999993 53.37 19.039999999999992 52.3 17.369999999999994 51.01 L 10.409999999999993 53.23 C 9.309999999999993 53.58 8.089999999999993 53.269999999999996 7.3499999999999925 52.379999999999995 C 6.339999999999993 51.13999999999999 5.409999999999993 49.839999999999996 4.589999999999993 48.47 L 3.999999999999993 47.46 C 3.239999999999993 46.1 2.579999999999993 44.660000000000004 2.029999999999993 43.17 C 1.6299999999999932 42.09 1.969999999999993 40.88 2.819999999999993 40.09 L 8.229999999999993 35.17 C 8.089999999999993 34.13 8.019999999999992 33.07 8.019999999999992 32 C 8.019999999999992 30.93 8.089999999999993 29.86 8.229999999999993 28.83 L 2.819999999999993 23.9 C 1.9599999999999933 23.11 1.6199999999999932 21.91 2.029999999999993 20.83 C 2.579999999999993 19.34 3.249999999999993 17.9 3.999999999999993 16.54 L 4.579999999999993 15.53 C 5.409999999999993 14.149999999999999 6.329999999999993 12.86 7.3499999999999925 11.62 C 8.089999999999993 10.729999999999999 9.309999999999992 10.42 10.409999999999993 10.77 L 17.369999999999994 12.99 C 19.039999999999992 11.7 20.889999999999993 10.620000000000001 22.869999999999994 9.81 L 24.429999999999993 2.670000000000001 C 24.679999999999993 1.540000000000001 25.549999999999994 0.6300000000000008 26.699999999999992 0.44000000000000083 C 28.429999999999993 0.15000000000000085 30.199999999999992 8.326672684688674e-16 32.00999999999999 8.326672684688674e-16 C 33.81999999999999 8.326672684688674e-16 35.599999999999994 0.15000000000000083 37.31999999999999 0.44000000000000083 C 38.46999999999999 0.6300000000000008 39.349999999999994 1.530000000000001 39.599999999999994 2.670000000000001 L 41.16 9.81 C 43.019999999999996 10.63 44.98 11.700000000000001 46.66 12.99 L 53.62 10.77 C 54.72 10.42 55.93 10.73 56.68 11.62 C 57.69 12.85 58.62 14.149999999999999 59.44 15.53 L 60.03 16.54 C 60.78 17.9 61.44 19.34 61.99 20.83 L 61.99 20.83 Z M 0 0 M 32 42 C 37.53 42 42 37.53 42 31.89 C 42 26.25 37.53 21.89 32 21.89 C 26.47 21.89 22 26.48 22 31.89 C 22 37.3 26.48 42 32 42 Z" stroke-miterlimit="10" stroke-dasharray=""/></g></g></g><g transform="matrix(1,0,0,1,224,6)"><g><path fill="white" stroke="white" paint-order="fill stroke markers" d=" M 9 0 L 11 0 L 10.999999999999998 0 A 9 9 0 0 1 20 9 L 20 11 L 20 11 A 9 9 0 0 1 11 20 L 9 20 L 9 20 A 9 9 0 0 1 0 11.000000000000002 L 0 9 L 0 9.000000000000002 A 9 9 0 0 1 8.999999999999998 0 Z" fill-opacity="0.001" stroke-miterlimit="10" stroke-opacity="0.001" stroke-dasharray=""/></g><g transform="matrix(2,0,0,2,0,0)"><path fill="#C97330" stroke="none" paint-order="stroke fill markers" d=" M 0 0 M 2.175 3.286 C 1.743 3.286 1.394 3.637 1.394 4.067 C 1.394 4.498 1.745 4.849 2.175 4.849 C 2.605 4.849 2.956 4.498 2.956 4.067 C 2.956 3.637 2.606 3.286 2.175 3.286 Z M 0 0 M 2.175 4.38 C 2.003 4.38 1.863 4.239 1.863 4.067 C 1.863 3.896 2.003 3.755 2.175 3.755 C 2.346 3.755 2.487 3.896 2.487 4.067 C 2.487 4.239 2.346 4.38 2.175 4.38 Z M 0 0 M 1.875 0.312 C 1.185 0.312 0.625 0.873 0.625 1.563 C 0.625 2.254 1.185 2.813 1.875 2.813 C 2.565 2.813 3.125 2.253 3.125 1.563 C 3.125 0.874 2.565 0.312 1.875 0.312 Z M 0 0 M 1.875 2.032 C 1.616 2.032 1.406 1.822 1.406 1.563 C 1.406 1.304 1.616 1.094 1.875 1.094 C 2.134 1.094 2.344 1.304 2.344 1.563 C 2.344 1.822 2.134 2.032 1.875 2.032 Z M 0 0 M 8.641 2.285 L 7.704 2.208 C 7.665 2.085 7.683 2.121 7.626 2 C 7.75 1.829 8.078 1.493 8.205 1.321 C 8.222 1.296 8.235 1.269 8.235 1.238 C 8.235 1.115 7.716 0.64 7.603 0.535 C 7.577 0.513 7.546 0.5 7.511 0.5 C 7.48 0.5 7.449 0.509 7.423 0.53 L 6.772 1.1 C 6.666 1.047 6.65 1.047 6.535 1.012 L 6.475 0.112 C 6.47 0.048 6.408 0 6.346 0 L 5.53 0 C 5.469 0 5.416 0.044 5.399 0.106 C 5.343 0.32 5.371 0.796 5.348 1.017 C 5.23 1.056 5.241 1.065 5.129 1.122 L 4.452 0.528 C 4.427 0.511 4.395 0.498 4.36 0.498 C 4.233 0.498 3.74 1.031 3.654 1.149 C 3.631 1.174 3.623 1.205 3.623 1.235 C 3.623 1.266 3.637 1.297 3.654 1.322 C 3.793 1.489 4.098 1.773 4.22 1.949 C 4.164 2.059 4.173 2.109 4.137 2.226 L 3.227 2.269 C 3.17 2.278 3.126 2.345 3.126 2.401 L 3.125 3.213 C 3.125 3.276 3.169 3.332 3.23 3.342 L 4.15 3.402 C 4.189 3.524 4.18 3.485 4.242 3.605 C 4.115 3.776 3.793 4.143 3.666 4.309 C 3.648 4.334 3.636 4.361 3.636 4.392 C 3.636 4.52 4.155 4.99 4.269 5.094 C 4.294 5.117 4.325 5.129 4.36 5.129 C 4.39 5.129 4.427 5.121 4.447 5.1 L 5.094 4.495 C 5.2 4.548 5.209 4.543 5.325 4.578 L 5.397 5.515 C 5.406 5.577 5.468 5.625 5.528 5.625 L 6.345 5.625 C 6.406 5.625 6.459 5.581 6.475 5.52 C 6.532 5.304 6.491 4.804 6.513 4.577 C 6.631 4.542 6.62 4.536 6.732 4.479 L 7.423 5.095 C 7.448 5.113 7.479 5.126 7.514 5.126 C 7.642 5.126 8.135 4.589 8.221 4.472 C 8.244 4.449 8.252 4.419 8.252 4.388 C 8.252 4.353 8.238 4.327 8.221 4.302 C 8.082 4.135 7.714 3.824 7.591 3.649 C 7.647 3.54 7.637 3.542 7.672 3.426 L 8.648 3.353 C 8.705 3.345 8.749 3.278 8.749 3.222 L 8.749 2.41 C 8.747 2.355 8.703 2.297 8.641 2.285 Z M 0 0 M 5.92 3.919 C 5.317 3.919 4.822 3.427 4.822 2.819 C 4.822 2.212 5.314 1.72 5.92 1.72 C 6.528 1.72 7.02 2.212 7.02 2.819 C 7.02 3.427 6.528 3.919 5.92 3.919 Z M 0 0 M 8.435 6.25 C 7.941 5.757 7.497 6.25 7.497 6.25 L 5.622 8.125 L 3.728 8.125 C 3.728 8.125 3.415 8.125 3.415 7.813 C 3.415 7.5 3.747 7.5 3.747 7.5 L 5.31 7.5 C 5.31 7.5 5.622 7.5 5.622 7.187 C 5.622 6.875 5.31 6.875 5.31 6.875 L 1.882 6.87 C 1.683 6.865 1.305 6.905 0.944 7.304 L 0 8.301 L 1.872 10 L 2.497 9.374 L 6.117 9.374 C 6.2 9.374 6.28 9.342 6.339 9.283 L 6.872 8.75 L 8.435 7.187 C 8.435 7.187 8.927 6.743 8.435 6.25 Z"/></g></g><g transform="matrix(1,0,0,1,117,70)"><g><path fill="white" stroke="white" paint-order="fill stroke markers" d=" M 9 0 L 11 0 L 10.999999999999998 0 A 9 9 0 0 1 20 9 L 20 11 L 20 11 A 9 9 0 0 1 11 20 L 9 20 L 9 20 A 9 9 0 0 1 0 11.000000000000002 L 0 9 L 0 9.000000000000002 A 9 9 0 0 1 8.999999999999998 0 Z" fill-opacity="0.001" stroke-miterlimit="10" stroke-opacity="0.001" stroke-dasharray=""/></g><g><path fill="#3E86A0" stroke="#3E86A0" paint-order="fill stroke markers" d=" M 0 0 M 15.26 3.1 L 0.42 3.1 C 0.189 3.1 0 2.911 0 2.68 L 0 1.56 C 0 1.329 0.189 1.14 0.42 1.14 L 15.26 1.14 C 15.491 1.14 15.68 1.329 15.68 1.56 L 15.68 2.68 C 15.68 2.911 15.491 3.1 15.26 3.1 Z M 0 0 M 15.26 8.7 L 0.42 8.7 C 0.189 8.7 0 8.511 0 8.28 L 0 7.16 C 0 6.929 0.189 6.74 0.42 6.74 L 15.26 6.74 C 15.491 6.74 15.68 6.929 15.68 7.16 L 15.68 8.28 C 15.68 8.511 15.491 8.7 15.26 8.7 Z M 0 0 M 15.26 14.3 L 0.42 14.3 C 0.189 14.3 0 14.111 0 13.88 L 0 12.76 C 0 12.529 0.189 12.34 0.42 12.34 L 15.26 12.34 C 15.491 12.34 15.68 12.529 15.68 12.76 L 15.68 13.88 C 15.68 14.111 15.491 14.3 15.26 14.3 Z" stroke-miterlimit="10" stroke-dasharray=""/></g></g><g transform="matrix(1,0,0,1,80,31.5)"><text fill="#FBAF4F" stroke="none" font-family="Open Sans" font-size="12pt" font-style="normal" font-weight="normal" text-decoration="normal" x="68.27734375" y="12" text-anchor="middle" dominant-baseline="central">CreateNamespace</text></g></g><g id="_0AF7D06E-7F7E-430D-9533-B1DFAFCEF6A4" transform="matrix(1,0,0,1,202,1097)"><g><path fill="#292A2D" stroke="#9876AA" id="_0AF7D06E-7F7E-430D-9533-B1DFAFCEF6A4?shapeType=BACKGROUND" paint-order="fill stroke markers" d=" M 0 5 L 0 5 L 0 5.000000000000001 A 5 5 0 0 1 5 0 L 245 0 L 245 0 L 245 0 A 5 5 0 0 1 250 5 L 250 85 L 250 85 L 250 85 A 5 5 0 0 1 245 90 L 5 90 L 5 90 L 5 90 A 5 5 0 0 1 0 85 Z" stroke-miterlimit="10" stroke-width="2" stroke-dasharray=""/></g><g transform="matrix(1,0,0,1,45,46)"><g id="_0AF7D06E-7F7E-430D-9533-B1DFAFCEF6A4"><path fill="#2A4E6C" stroke="#909090" id="_0AF7D06E-7F7E-430D-9533-B1DFAFCEF6A4" paint-order="fill stroke markers" d=" M 0 -25 L 0 -25 L 1.5308084989341915e-15 -25 A 25 25 0 0 1 25 0 L 25 0 L 25 0 A 25 25 0 0 1 1.5308084989341915e-15 25 L 0 25 L 1.5308084989341915e-15 25 A 25 25 0 0 1 -25 3.061616997868383e-15 L -25 0 L -25 3.061616997868383e-15 A 25 25 0 0 1 1.5308084989341915e-15 -25 Z" stroke-miterlimit="10" stroke-dasharray=""/></g><g><g transform="matrix(0.35,0,0,0.35,-11,-11)"><path fill="#C4C4C4" stroke="#505050" paint-order="fill stroke markers" d=" M 0 0 M 61.99 20.83 C 62.4 21.9 62.050000000000004 23.119999999999997 61.2 23.9 L 55.790000000000006 28.83 C 55.93000000000001 29.869999999999997 56.00000000000001 30.93 56.00000000000001 32 C 56.00000000000001 33.07 55.92000000000001 34.14 55.790000000000006 35.17 L 61.2 40.09 C 62.050000000000004 40.88 62.400000000000006 42.09 61.99 43.17 C 61.440000000000005 44.660000000000004 60.78 46.09 60.03 47.46 L 59.44 48.47 C 58.61 49.85 57.69 51.15 56.68 52.379999999999995 C 55.93 53.269999999999996 54.72 53.58 53.62 53.23 L 46.66 51.01 C 44.98 52.3 43.019999999999996 53.37 41.16 54.199999999999996 L 39.599999999999994 61.339999999999996 C 39.349999999999994 62.459999999999994 38.48 63.26 37.31999999999999 63.559999999999995 C 35.599999999999994 63.849999999999994 33.81999999999999 63.99999999999999 31.89999999999999 63.99999999999999 C 30.199999999999992 63.99999999999999 28.41999999999999 63.849999999999994 26.699999999999992 63.559999999999995 C 25.549999999999994 63.26 24.679999999999993 62.459999999999994 24.429999999999993 61.339999999999996 L 22.869999999999994 54.199999999999996 C 20.889999999999993 53.37 19.039999999999992 52.3 17.369999999999994 51.01 L 10.409999999999993 53.23 C 9.309999999999993 53.58 8.089999999999993 53.269999999999996 7.3499999999999925 52.379999999999995 C 6.339999999999993 51.13999999999999 5.409999999999993 49.839999999999996 4.589999999999993 48.47 L 3.999999999999993 47.46 C 3.239999999999993 46.1 2.579999999999993 44.660000000000004 2.029999999999993 43.17 C 1.6299999999999932 42.09 1.969999999999993 40.88 2.819999999999993 40.09 L 8.229999999999993 35.17 C 8.089999999999993 34.13 8.019999999999992 33.07 8.019999999999992 32 C 8.019999999999992 30.93 8.089999999999993 29.86 8.229999999999993 28.83 L 2.819999999999993 23.9 C 1.9599999999999933 23.11 1.6199999999999932 21.91 2.029999999999993 20.83 C 2.579999999999993 19.34 3.249999999999993 17.9 3.999999999999993 16.54 L 4.579999999999993 15.53 C 5.409999999999993 14.149999999999999 6.329999999999993 12.86 7.3499999999999925 11.62 C 8.089999999999993 10.729999999999999 9.309999999999992 10.42 10.409999999999993 10.77 L 17.369999999999994 12.99 C 19.039999999999992 11.7 20.889999999999993 10.620000000000001 22.869999999999994 9.81 L 24.429999999999993 2.670000000000001 C 24.679999999999993 1.540000000000001 25.549999999999994 0.6300000000000008 26.699999999999992 0.44000000000000083 C 28.429999999999993 0.15000000000000085 30.199999999999992 8.326672684688674e-16 32.00999999999999 8.326672684688674e-16 C 33.81999999999999 8.326672684688674e-16 35.599999999999994 0.15000000000000083 37.31999999999999 0.44000000000000083 C 38.46999999999999 0.6300000000000008 39.349999999999994 1.530000000000001 39.599999999999994 2.670000000000001 L 41.16 9.81 C 43.019999999999996 10.63 44.98 11.700000000000001 46.66 12.99 L 53.62 10.77 C 54.72 10.42 55.93 10.73 56.68 11.62 C 57.69 12.85 58.62 14.149999999999999 59.44 15.53 L 60.03 16.54 C 60.78 17.9 61.44 19.34 61.99 20.83 L 61.99 20.83 Z M 0 0 M 32 42 C 37.53 42 42 37.53 42 31.89 C 42 26.25 37.53 21.89 32 21.89 C 26.47 21.89 22 26.48 22 31.89 C 22 37.3 26.48 42 32 42 Z" stroke-miterlimit="10" stroke-dasharray=""/></g></g></g><g transform="matrix(1,0,0,1,224,6)"><g><path fill="white" stroke="white" paint-order="fill stroke markers" d=" M 9 0 L 11 0 L 10.999999999999998 0 A 9 9 0 0 1 20 9 L 20 11 L 20 11 A 9 9 0 0 1 11 20 L 9 20 L 9 20 A 9 9 0 0 1 0 11.000000000000002 L 0 9 L 0 9.000000000000002 A 9 9 0 0 1 8.999999999999998 0 Z" fill-opacity="0.001" stroke-miterlimit="10" stroke-opacity="0.001" stroke-dasharray=""/></g><g transform="matrix(2,0,0,2,0,0)"><path fill="#C97330" stroke="none" paint-order="stroke fill markers" d=" M 0 0 M 2.175 3.286 C 1.743 3.286 1.394 3.637 1.394 4.067 C 1.394 4.498 1.745 4.849 2.175 4.849 C 2.605 4.849 2.956 4.498 2.956 4.067 C 2.956 3.637 2.606 3.286 2.175 3.286 Z M 0 0 M 2.175 4.38 C 2.003 4.38 1.863 4.239 1.863 4.067 C 1.863 3.896 2.003 3.755 2.175 3.755 C 2.346 3.755 2.487 3.896 2.487 4.067 C 2.487 4.239 2.346 4.38 2.175 4.38 Z M 0 0 M 1.875 0.312 C 1.185 0.312 0.625 0.873 0.625 1.563 C 0.625 2.254 1.185 2.813 1.875 2.813 C 2.565 2.813 3.125 2.253 3.125 1.563 C 3.125 0.874 2.565 0.312 1.875 0.312 Z M 0 0 M 1.875 2.032 C 1.616 2.032 1.406 1.822 1.406 1.563 C 1.406 1.304 1.616 1.094 1.875 1.094 C 2.134 1.094 2.344 1.304 2.344 1.563 C 2.344 1.822 2.134 2.032 1.875 2.032 Z M 0 0 M 8.641 2.285 L 7.704 2.208 C 7.665 2.085 7.683 2.121 7.626 2 C 7.75 1.829 8.078 1.493 8.205 1.321 C 8.222 1.296 8.235 1.269 8.235 1.238 C 8.235 1.115 7.716 0.64 7.603 0.535 C 7.577 0.513 7.546 0.5 7.511 0.5 C 7.48 0.5 7.449 0.509 7.423 0.53 L 6.772 1.1 C 6.666 1.047 6.65 1.047 6.535 1.012 L 6.475 0.112 C 6.47 0.048 6.408 0 6.346 0 L 5.53 0 C 5.469 0 5.416 0.044 5.399 0.106 C 5.343 0.32 5.371 0.796 5.348 1.017 C 5.23 1.056 5.241 1.065 5.129 1.122 L 4.452 0.528 C 4.427 0.511 4.395 0.498 4.36 0.498 C 4.233 0.498 3.74 1.031 3.654 1.149 C 3.631 1.174 3.623 1.205 3.623 1.235 C 3.623 1.266 3.637 1.297 3.654 1.322 C 3.793 1.489 4.098 1.773 4.22 1.949 C 4.164 2.059 4.173 2.109 4.137 2.226 L 3.227 2.269 C 3.17 2.278 3.126 2.345 3.126 2.401 L 3.125 3.213 C 3.125 3.276 3.169 3.332 3.23 3.342 L 4.15 3.402 C 4.189 3.524 4.18 3.485 4.242 3.605 C 4.115 3.776 3.793 4.143 3.666 4.309 C 3.648 4.334 3.636 4.361 3.636 4.392 C 3.636 4.52 4.155 4.99 4.269 5.094 C 4.294 5.117 4.325 5.129 4.36 5.129 C 4.39 5.129 4.427 5.121 4.447 5.1 L 5.094 4.495 C 5.2 4.548 5.209 4.543 5.325 4.578 L 5.397 5.515 C 5.406 5.577 5.468 5.625 5.528 5.625 L 6.345 5.625 C 6.406 5.625 6.459 5.581 6.475 5.52 C 6.532 5.304 6.491 4.804 6.513 4.577 C 6.631 4.542 6.62 4.536 6.732 4.479 L 7.423 5.095 C 7.448 5.113 7.479 5.126 7.514 5.126 C 7.642 5.126 8.135 4.589 8.221 4.472 C 8.244 4.449 8.252 4.419 8.252 4.388 C 8.252 4.353 8.238 4.327 8.221 4.302 C 8.082 4.135 7.714 3.824 7.591 3.649 C 7.647 3.54 7.637 3.542 7.672 3.426 L 8.648 3.353 C 8.705 3.345 8.749 3.278 8.749 3.222 L 8.749 2.41 C 8.747 2.355 8.703 2.297 8.641 2.285 Z M 0 0 M 5.92 3.919 C 5.317 3.919 4.822 3.427 4.822 2.819 C 4.822 2.212 5.314 1.72 5.92 1.72 C 6.528 1.72 7.02 2.212 7.02 2.819 C 7.02 3.427 6.528 3.919 5.92 3.919 Z M 0 0 M 8.435 6.25 C 7.941 5.757 7.497 6.25 7.497 6.25 L 5.622 8.125 L 3.728 8.125 C 3.728 8.125 3.415 8.125 3.415 7.813 C 3.415 7.5 3.747 7.5 3.747 7.5 L 5.31 7.5 C 5.31 7.5 5.622 7.5 5.622 7.187 C 5.622 6.875 5.31 6.875 5.31 6.875 L 1.882 6.87 C 1.683 6.865 1.305 6.905 0.944 7.304 L 0 8.301 L 1.872 10 L 2.497 9.374 L 6.117 9.374 C 6.2 9.374 6.28 9.342 6.339 9.283 L 6.872 8.75 L 8.435 7.187 C 8.435 7.187 8.927 6.743 8.435 6.25 Z"/></g></g><g transform="matrix(1,0,0,1,117,70)"><g><path fill="white" stroke="white" paint-order="fill stroke markers" d=" M 9 0 L 11 0 L 10.999999999999998 0 A 9 9 0 0 1 20 9 L 20 11 L 20 11 A 9 9 0 0 1 11 20 L 9 20 L 9 20 A 9 9 0 0 1 0 11.000000000000002 L 0 9 L 0 9.000000000000002 A 9 9 0 0 1 8.999999999999998 0 Z" fill-opacity="0.001" stroke-miterlimit="10" stroke-opacity="0.001" stroke-dasharray=""/></g><g><path fill="#3E86A0" stroke="#3E86A0" paint-order="fill stroke markers" d=" M 0 0 M 15.26 3.1 L 0.42 3.1 C 0.189 3.1 0 2.911 0 2.68 L 0 1.56 C 0 1.329 0.189 1.14 0.42 1.14 L 15.26 1.14 C 15.491 1.14 15.68 1.329 15.68 1.56 L 15.68 2.68 C 15.68 2.911 15.491 3.1 15.26 3.1 Z M 0 0 M 15.26 8.7 L 0.42 8.7 C 0.189 8.7 0 8.511 0 8.28 L 0 7.16 C 0 6.929 0.189 6.74 0.42 6.74 L 15.26 6.74 C 15.491 6.74 15.68 6.929 15.68 7.16 L 15.68 8.28 C 15.68 8.511 15.491 8.7 15.26 8.7 Z M 0 0 M 15.26 14.3 L 0.42 14.3 C 0.189 14.3 0 14.111 0 13.88 L 0 12.76 C 0 12.529 0.189 12.34 0.42 12.34 L 15.26 12.34 C 15.491 12.34 15.68 12.529 15.68 12.76 L 15.68 13.88 C 15.68 14.111 15.491 14.3 15.26 14.3 Z" stroke-miterlimit="10" stroke-dasharray=""/></g></g><g transform="matrix(1,0,0,1,80,31.5)"><text fill="#FBAF4F" stroke="none" font-family="Open Sans" font-size="12pt" font-style="normal" font-weight="normal" text-decoration="normal" x="64.68359375" y="12" text-anchor="middle" dominant-baseline="central">PatchNamespace</text></g></g><g id="_483DF0F1-CD5C-4B0D-B235-A2AB6FD16187" transform="matrix(1,0,0,1,304,1314)"><g><path fill="#292A2D" stroke="#9876AA" id="_483DF0F1-CD5C-4B0D-B235-A2AB6FD16187?shapeType=BACKGROUND" paint-order="fill stroke markers" d=" M 0 0 L 46 0 L 46 46 L 0 46 Z" stroke-miterlimit="10" stroke-width="2" stroke-dasharray=""/></g><g transform="matrix(1,0,0,1,9,29)"><text fill="#929292" stroke="none" font-family="Open Sans" font-size="12pt" font-style="normal" font-weight="normal" text-decoration="normal" x="0" y="0" text-anchor="start" dominant-baseline="alphabetic">End</text></g></g><g id="_96BCDB27-6483-4590-95CB-67D202E0E14C" transform="matrix(1,0,0,1,177,880)"><g><path fill="#292A2D" stroke="#9876AA" id="_96BCDB27-6483-4590-95CB-67D202E0E14C?shapeType=BACKGROUND" paint-order="fill stroke markers" d=" M 0 5 L 0 5 L 0 5.000000000000001 A 5 5 0 0 1 5 0 L 245 0 L 245 0 L 245 0 A 5 5 0 0 1 250 5 L 250 85 L 250 85 L 250 85 A 5 5 0 0 1 245 90 L 5 90 L 5 90 L 5 90 A 5 5 0 0 1 0 85 Z" stroke-miterlimit="10" stroke-width="2" stroke-dasharray=""/></g><g transform="matrix(1,0,0,1,45,46)"><g id="_96BCDB27-6483-4590-95CB-67D202E0E14C"><path fill="#2A4E6C" stroke="#909090" id="_96BCDB27-6483-4590-95CB-67D202E0E14C" paint-order="fill stroke markers" d=" M 0 -25 L 0 -25 L 1.5308084989341915e-15 -25 A 25 25 0 0 1 25 0 L 25 0 L 25 0 A 25 25 0 0 1 1.5308084989341915e-15 25 L 0 25 L 1.5308084989341915e-15 25 A 25 25 0 0 1 -25 3.061616997868383e-15 L -25 0 L -25 3.061616997868383e-15 A 25 25 0 0 1 1.5308084989341915e-15 -25 Z" stroke-miterlimit="10" stroke-dasharray=""/></g><g><g transform="matrix(0.35,0,0,0.35,-11,-11)"><path fill="#C4C4C4" stroke="#505050" paint-order="fill stroke markers" d=" M 0 0 M 61.99 20.83 C 62.4 21.9 62.050000000000004 23.119999999999997 61.2 23.9 L 55.790000000000006 28.83 C 55.93000000000001 29.869999999999997 56.00000000000001 30.93 56.00000000000001 32 C 56.00000000000001 33.07 55.92000000000001 34.14 55.790000000000006 35.17 L 61.2 40.09 C 62.050000000000004 40.88 62.400000000000006 42.09 61.99 43.17 C 61.440000000000005 44.660000000000004 60.78 46.09 60.03 47.46 L 59.44 48.47 C 58.61 49.85 57.69 51.15 56.68 52.379999999999995 C 55.93 53.269999999999996 54.72 53.58 53.62 53.23 L 46.66 51.01 C 44.98 52.3 43.019999999999996 53.37 41.16 54.199999999999996 L 39.599999999999994 61.339999999999996 C 39.349999999999994 62.459999999999994 38.48 63.26 37.31999999999999 63.559999999999995 C 35.599999999999994 63.849999999999994 33.81999999999999 63.99999999999999 31.89999999999999 63.99999999999999 C 30.199999999999992 63.99999999999999 28.41999999999999 63.849999999999994 26.699999999999992 63.559999999999995 C 25.549999999999994 63.26 24.679999999999993 62.459999999999994 24.429999999999993 61.339999999999996 L 22.869999999999994 54.199999999999996 C 20.889999999999993 53.37 19.039999999999992 52.3 17.369999999999994 51.01 L 10.409999999999993 53.23 C 9.309999999999993 53.58 8.089999999999993 53.269999999999996 7.3499999999999925 52.379999999999995 C 6.339999999999993 51.13999999999999 5.409999999999993 49.839999999999996 4.589999999999993 48.47 L 3.999999999999993 47.46 C 3.239999999999993 46.1 2.579999999999993 44.660000000000004 2.029999999999993 43.17 C 1.6299999999999932 42.09 1.969999999999993 40.88 2.819999999999993 40.09 L 8.229999999999993 35.17 C 8.089999999999993 34.13 8.019999999999992 33.07 8.019999999999992 32 C 8.019999999999992 30.93 8.089999999999993 29.86 8.229999999999993 28.83 L 2.819999999999993 23.9 C 1.9599999999999933 23.11 1.6199999999999932 21.91 2.029999999999993 20.83 C 2.579999999999993 19.34 3.249999999999993 17.9 3.999999999999993 16.54 L 4.579999999999993 15.53 C 5.409999999999993 14.149999999999999 6.329999999999993 12.86 7.3499999999999925 11.62 C 8.089999999999993 10.729999999999999 9.309999999999992 10.42 10.409999999999993 10.77 L 17.369999999999994 12.99 C 19.039999999999992 11.7 20.889999999999993 10.620000000000001 22.869999999999994 9.81 L 24.429999999999993 2.670000000000001 C 24.679999999999993 1.540000000000001 25.549999999999994 0.6300000000000008 26.699999999999992 0.44000000000000083 C 28.429999999999993 0.15000000000000085 30.199999999999992 8.326672684688674e-16 32.00999999999999 8.326672684688674e-16 C 33.81999999999999 8.326672684688674e-16 35.599999999999994 0.15000000000000083 37.31999999999999 0.44000000000000083 C 38.46999999999999 0.6300000000000008 39.349999999999994 1.530000000000001 39.599999999999994 2.670000000000001 L 41.16 9.81 C 43.019999999999996 10.63 44.98 11.700000000000001 46.66 12.99 L 53.62 10.77 C 54.72 10.42 55.93 10.73 56.68 11.62 C 57.69 12.85 58.62 14.149999999999999 59.44 15.53 L 60.03 16.54 C 60.78 17.9 61.44 19.34 61.99 20.83 L 61.99 20.83 Z M 0 0 M 32 42 C 37.53 42 42 37.53 42 31.89 C 42 26.25 37.53 21.89 32 21.89 C 26.47 21.89 22 26.48 22 31.89 C 22 37.3 26.48 42 32 42 Z" stroke-miterlimit="10" stroke-dasharray=""/></g></g></g><g transform="matrix(1,0,0,1,224,6)"><g><path fill="white" stroke="white" paint-order="fill stroke markers" d=" M 9 0 L 11 0 L 10.999999999999998 0 A 9 9 0 0 1 20 9 L 20 11 L 20 11 A 9 9 0 0 1 11 20 L 9 20 L 9 20 A 9 9 0 0 1 0 11.000000000000002 L 0 9 L 0 9.000000000000002 A 9 9 0 0 1 8.999999999999998 0 Z" fill-opacity="0.001" stroke-miterlimit="10" stroke-opacity="0.001" stroke-dasharray=""/></g><g transform="matrix(2,0,0,2,0,0)"><path fill="#C97330" stroke="none" paint-order="stroke fill markers" d=" M 0 0 M 2.175 3.286 C 1.743 3.286 1.394 3.637 1.394 4.067 C 1.394 4.498 1.745 4.849 2.175 4.849 C 2.605 4.849 2.956 4.498 2.956 4.067 C 2.956 3.637 2.606 3.286 2.175 3.286 Z M 0 0 M 2.175 4.38 C 2.003 4.38 1.863 4.239 1.863 4.067 C 1.863 3.896 2.003 3.755 2.175 3.755 C 2.346 3.755 2.487 3.896 2.487 4.067 C 2.487 4.239 2.346 4.38 2.175 4.38 Z M 0 0 M 1.875 0.312 C 1.185 0.312 0.625 0.873 0.625 1.563 C 0.625 2.254 1.185 2.813 1.875 2.813 C 2.565 2.813 3.125 2.253 3.125 1.563 C 3.125 0.874 2.565 0.312 1.875 0.312 Z M 0 0 M 1.875 2.032 C 1.616 2.032 1.406 1.822 1.406 1.563 C 1.406 1.304 1.616 1.094 1.875 1.094 C 2.134 1.094 2.344 1.304 2.344 1.563 C 2.344 1.822 2.134 2.032 1.875 2.032 Z M 0 0 M 8.641 2.285 L 7.704 2.208 C 7.665 2.085 7.683 2.121 7.626 2 C 7.75 1.829 8.078 1.493 8.205 1.321 C 8.222 1.296 8.235 1.269 8.235 1.238 C 8.235 1.115 7.716 0.64 7.603 0.535 C 7.577 0.513 7.546 0.5 7.511 0.5 C 7.48 0.5 7.449 0.509 7.423 0.53 L 6.772 1.1 C 6.666 1.047 6.65 1.047 6.535 1.012 L 6.475 0.112 C 6.47 0.048 6.408 0 6.346 0 L 5.53 0 C 5.469 0 5.416 0.044 5.399 0.106 C 5.343 0.32 5.371 0.796 5.348 1.017 C 5.23 1.056 5.241 1.065 5.129 1.122 L 4.452 0.528 C 4.427 0.511 4.395 0.498 4.36 0.498 C 4.233 0.498 3.74 1.031 3.654 1.149 C 3.631 1.174 3.623 1.205 3.623 1.235 C 3.623 1.266 3.637 1.297 3.654 1.322 C 3.793 1.489 4.098 1.773 4.22 1.949 C 4.164 2.059 4.173 2.109 4.137 2.226 L 3.227 2.269 C 3.17 2.278 3.126 2.345 3.126 2.401 L 3.125 3.213 C 3.125 3.276 3.169 3.332 3.23 3.342 L 4.15 3.402 C 4.189 3.524 4.18 3.485 4.242 3.605 C 4.115 3.776 3.793 4.143 3.666 4.309 C 3.648 4.334 3.636 4.361 3.636 4.392 C 3.636 4.52 4.155 4.99 4.269 5.094 C 4.294 5.117 4.325 5.129 4.36 5.129 C 4.39 5.129 4.427 5.121 4.447 5.1 L 5.094 4.495 C 5.2 4.548 5.209 4.543 5.325 4.578 L 5.397 5.515 C 5.406 5.577 5.468 5.625 5.528 5.625 L 6.345 5.625 C 6.406 5.625 6.459 5.581 6.475 5.52 C 6.532 5.304 6.491 4.804 6.513 4.577 C 6.631 4.542 6.62 4.536 6.732 4.479 L 7.423 5.095 C 7.448 5.113 7.479 5.126 7.514 5.126 C 7.642 5.126 8.135 4.589 8.221 4.472 C 8.244 4.449 8.252 4.419 8.252 4.388 C 8.252 4.353 8.238 4.327 8.221 4.302 C 8.082 4.135 7.714 3.824 7.591 3.649 C 7.647 3.54 7.637 3.542 7.672 3.426 L 8.648 3.353 C 8.705 3.345 8.749 3.278 8.749 3.222 L 8.749 2.41 C 8.747 2.355 8.703 2.297 8.641 2.285 Z M 0 0 M 5.92 3.919 C 5.317 3.919 4.822 3.427 4.822 2.819 C 4.822 2.212 5.314 1.72 5.92 1.72 C 6.528 1.72 7.02 2.212 7.02 2.819 C 7.02 3.427 6.528 3.919 5.92 3.919 Z M 0 0 M 8.435 6.25 C 7.941 5.757 7.497 6.25 7.497 6.25 L 5.622 8.125 L 3.728 8.125 C 3.728 8.125 3.415 8.125 3.415 7.813 C 3.415 7.5 3.747 7.5 3.747 7.5 L 5.31 7.5 C 5.31 7.5 5.622 7.5 5.622 7.187 C 5.622 6.875 5.31 6.875 5.31 6.875 L 1.882 6.87 C 1.683 6.865 1.305 6.905 0.944 7.304 L 0 8.301 L 1.872 10 L 2.497 9.374 L 6.117 9.374 C 6.2 9.374 6.28 9.342 6.339 9.283 L 6.872 8.75 L 8.435 7.187 C 8.435 7.187 8.927 6.743 8.435 6.25 Z"/></g></g><g transform="matrix(1,0,0,1,117,70)"><g><path fill="white" stroke="white" paint-order="fill stroke markers" d=" M 9 0 L 11 0 L 10.999999999999998 0 A 9 9 0 0 1 20 9 L 20 11 L 20 11 A 9 9 0 0 1 11 20 L 9 20 L 9 20 A 9 9 0 0 1 0 11.000000000000002 L 0 9 L 0 9.000000000000002 A 9 9 0 0 1 8.999999999999998 0 Z" fill-opacity="0.001" stroke-miterlimit="10" stroke-opacity="0.001" stroke-dasharray=""/></g><g><path fill="#3E86A0" stroke="#3E86A0" paint-order="fill stroke markers" d=" M 0 0 M 15.26 3.1 L 0.42 3.1 C 0.189 3.1 0 2.911 0 2.68 L 0 1.56 C 0 1.329 0.189 1.14 0.42 1.14 L 15.26 1.14 C 15.491 1.14 15.68 1.329 15.68 1.56 L 15.68 2.68 C 15.68 2.911 15.491 3.1 15.26 3.1 Z M 0 0 M 15.26 8.7 L 0.42 8.7 C 0.189 8.7 0 8.511 0 8.28 L 0 7.16 C 0 6.929 0.189 6.74 0.42 6.74 L 15.26 6.74 C 15.491 6.74 15.68 6.929 15.68 7.16 L 15.68 8.28 C 15.68 8.511 15.491 8.7 15.26 8.7 Z M 0 0 M 15.26 14.3 L 0.42 14.3 C 0.189 14.3 0 14.111 0 13.88 L 0 12.76 C 0 12.529 0.189 12.34 0.42 12.34 L 15.26 12.34 C 15.491 12.34 15.68 12.529 15.68 12.76 L 15.68 13.88 C 15.68 14.111 15.491 14.3 15.26 14.3 Z" stroke-miterlimit="10" stroke-dasharray=""/></g></g><g transform="matrix(1,0,0,1,80,24)"><text fill="#FBAF4F" stroke="none" font-family="Open Sans" font-size="12pt" font-style="normal" font-weight="normal" text-decoration="normal" x="73.1796875" y="12" text-anchor="middle" dominant-baseline="central">NamespaceCreated</text><text fill="#FBAF4F" stroke="none" font-family="Open Sans" font-size="12pt" font-style="normal" font-weight="normal" text-decoration="normal" x="73.1796875" y="27" text-anchor="middle" dominant-baseline="central">       Notification       </text></g></g><g id="startEdge"><g><path fill="none" stroke="#757575" paint-order="fill stroke markers" d=" M 327 100 L 327 110 L 327 174.66666666666669 L 327 217" stroke-miterlimit="10" stroke-width="2" stroke-dasharray=""/></g><g transform="matrix(1,0,0,1,327,100)"/><g transform="matrix(-1,1.2246467991473532e-16,-1.2246467991473532e-16,-1,331,229)"><path fill="#757575" stroke="#757575" paint-order="fill stroke markers" d=" M 8 15 L 0 15 L 4 3 Z" stroke-miterlimit="10" stroke-width="2" stroke-dasharray=""/></g><g/><g transform="matrix(1,0,0,1,337,164.5)"/></g><g id="_B39E45F6-B305-4926-B7D7-2517CD18A6EC"><g><path fill="none" stroke="#757575" paint-order="fill stroke markers" d=" M 340.0813953488372 319 L 340.0813953488372 329 L 340.0813953488372 392.3333333333333 L 377 392.3333333333333 L 377 434" stroke-miterlimit="10" stroke-width="2" stroke-dasharray=""/></g><g transform="matrix(1,0,0,1,340.0813953488372,319)"/><g transform="matrix(-1,1.2246467991473532e-16,-1.2246467991473532e-16,-1,381,446)"><path fill="#757575" stroke="#757575" paint-order="fill stroke markers" d=" M 8 15 L 0 15 L 4 3 Z" stroke-miterlimit="10" stroke-width="2" stroke-dasharray=""/></g><g/><g transform="matrix(1,0,0,1,349.68389263446215,379.7085763704579)"/></g><g id="_9DE30CC2-4DD5-4AC2-A8D4-8ECF549C5060"><g><path fill="none" stroke="#678550" paint-order="fill stroke markers" d=" M 335.110599078341 536 L 335.110599078341 546 L 335.110599078341 584.1699734934123 L 216.88940092165896 584.1699734934123 L 216.88940092165896 651" stroke-miterlimit="10" stroke-width="2" stroke-dasharray=""/></g><g transform="matrix(1,0,0,1,335.110599078341,536)"/><g transform="matrix(-1,1.2246467991473532e-16,-1.2246467991473532e-16,-1,220.88940092165896,663)"><path fill="#678550" stroke="#678550" paint-order="fill stroke markers" d=" M 8 15 L 0 15 L 4 3 Z" stroke-miterlimit="10" stroke-width="2" stroke-dasharray=""/></g><g/><g transform="matrix(1,0,0,1,224.20892071821822,592.6864377930647)"/></g><g id="_71A7DE7D-ED69-4075-9737-F410F3BB6409"><g><path fill="none" stroke="#757575" paint-order="fill stroke markers" d=" M 175 753 L 175 763 L 175 798.5314960629921 L 302 798.5314960629921 L 302 868" stroke-miterlimit="10" stroke-width="2" stroke-dasharray=""/></g><g transform="matrix(1,0,0,1,175,753)"/><g transform="matrix(-1,1.2246467991473532e-16,-1.2246467991473532e-16,-1,306,880)"><path fill="#757575" stroke="#757575" paint-order="fill stroke markers" d=" M 8 15 L 0 15 L 4 3 Z" stroke-miterlimit="10" stroke-width="2" stroke-dasharray=""/></g><g/><g transform="matrix(1,0,0,1,182.07106781186548,809.4289321881346)"/></g><g id="_D68D0E10-E5A5-45E1-82A4-DB3530E04A3C"><g><path fill="none" stroke="#757575" paint-order="fill stroke markers" d=" M 302 970 L 302 980 L 302 1043.3333333333333 L 327 1043.3333333333333 L 327 1085" stroke-miterlimit="10" stroke-width="2" stroke-dasharray=""/></g><g transform="matrix(1,0,0,1,302,970)"/><g transform="matrix(-1,1.2246467991473532e-16,-1.2246467991473532e-16,-1,331,1097)"><path fill="#757575" stroke="#757575" paint-order="fill stroke markers" d=" M 8 15 L 0 15 L 4 3 Z" stroke-miterlimit="10" stroke-width="2" stroke-dasharray=""/></g><g/><g transform="matrix(1,0,0,1,311.8117046210498,1031.5685620824704)"/></g><g id="_351C6CC4-22AF-4D06-8391-50E061FAD17B"><g><path fill="none" stroke="#757575" paint-order="fill stroke markers" d=" M 327 1187 L 327 1197 L 327 1260.3333333333333 L 327 1302" stroke-miterlimit="10" stroke-width="2" stroke-dasharray=""/></g><g transform="matrix(1,0,0,1,327,1187)"/><g transform="matrix(-1,1.2246467991473532e-16,-1.2246467991473532e-16,-1,331,1314)"><path fill="#757575" stroke="#757575" paint-order="fill stroke markers" d=" M 8 15 L 0 15 L 4 3 Z" stroke-miterlimit="10" stroke-width="2" stroke-dasharray=""/></g><g/><g transform="matrix(1,0,0,1,337,1250.5)"/></g><g id="_93904A9C-7414-4C6B-988D-6F3BD836CEBA"><g><path fill="none" stroke="#757575" paint-order="fill stroke markers" d=" M 403.68604651162786 536 L 403.68604651162786 546 L 403.68604651162786 605.915856106222 L 479 605.915856106222 L 479 651" stroke-miterlimit="10" stroke-width="2" stroke-dasharray=""/></g><g transform="matrix(1,0,0,1,403.68604651162786,536)"/><g transform="matrix(-1,1.2246467991473532e-16,-1.2246467991473532e-16,-1,483,663)"><path fill="#757575" stroke="#757575" paint-order="fill stroke markers" d=" M 8 15 L 0 15 L 4 3 Z" stroke-miterlimit="10" stroke-width="2" stroke-dasharray=""/></g><g transform="matrix(1,0,0,1,394.66539569233737,597.915856106222)"><path fill="gray" stroke="gray" paint-order="fill stroke markers" d=" M 3 0 L 90.35525512695312 0 L 90.35525512695312 0 A 3 3 0 0 1 93.35525512695312 3 L 93.35525512695312 13 L 93.35525512695312 13 A 3 3 0 0 1 90.35525512695312 16 L 3 16 L 3 16 A 3 3 0 0 1 0 13 L 0 3 L 0 3.0000000000000004 A 3 3 0 0 1 2.9999999999999996 0 Z" stroke-miterlimit="10" stroke-dasharray=""/></g><g transform="matrix(1,0,0,1,397.66539569233737,600.915856106222)"><text fill="#C4C4C4" stroke="none" font-family="Verdana" font-size="10pt" font-style="normal" font-weight="normal" text-decoration="normal" x="0" y="8" text-anchor="start" dominant-baseline="alphabetic">.existingName...                  </text><path fill="none" stroke="none"/><text fill="none" stroke="#C4C4C4" font-family="Verdana" font-size="10pt" font-style="normal" font-weight="normal" text-decoration="normal" x="0" y="8" text-anchor="start" dominant-baseline="alphabetic" stroke-miterlimit="10" stroke-width="0.7" stroke-dasharray="">.existingName...                  </text></g></g><g id="_A57050F8-0E79-4F3A-8090-59AFF74F0A65"><g><path fill="none" stroke="#757575" paint-order="fill stroke markers" d=" M 479 753 L 479 763 L 479 795 L 481 795 L 481 981.6666666666666 L 346.971181556196 981.6666666666666 L 346.971181556196 1085" stroke-miterlimit="10" stroke-width="2" stroke-dasharray=""/></g><g transform="matrix(1,0,0,1,479,753)"/><g transform="matrix(-1,1.2246467991473532e-16,-1.2246467991473532e-16,-1,350.971181556196,1097)"><path fill="#757575" stroke="#757575" paint-order="fill stroke markers" d=" M 8 15 L 0 15 L 4 3 Z" stroke-miterlimit="10" stroke-width="2" stroke-dasharray=""/></g><g/><g transform="matrix(1,0,0,1,382.5609165961521,941.9435039195141)"/></g><g id="_7C407331-4A06-4404-8F2C-0E19E1F1BC0A"><g><path fill="none" stroke="#D1675A" paint-order="fill stroke markers" d=" M 327 319 L 327 329 L 327 381 L 202 381 L 202 554.3333333333334 L 178.71559633027522 554.3333333333334 L 178.71559633027522 651" stroke-miterlimit="10" stroke-width="2" stroke-dasharray="8,8"/></g><g transform="matrix(1,0,0,1,327,319)"/><g transform="matrix(-1,1.2246467991473532e-16,-1.2246467991473532e-16,-1,182.71559633027522,663)"><path fill="#D1675A" stroke="#D1675A" paint-order="fill stroke markers" d=" M 8 15 L 0 15 L 4 3 Z" stroke-miterlimit="10" stroke-width="2" stroke-dasharray=""/></g><g transform="matrix(1,0,0,1,154.7757110595703,459.6666666666667)"><path fill="#9F3A3A" stroke="#9F3A3A" paint-order="fill stroke markers" d=" M 3 0 L 91.44857788085938 0 L 91.44857788085938 0 A 3 3 0 0 1 94.44857788085938 3 L 94.44857788085938 13 L 94.44857788085938 13 A 3 3 0 0 1 91.44857788085938 16 L 3 16 L 3 16 A 3 3 0 0 1 0 13 L 0 3 L 0 3.0000000000000004 A 3 3 0 0 1 2.9999999999999996 0 Z" stroke-miterlimit="10" stroke-dasharray=""/></g><g transform="matrix(1,0,0,1,157.7757110595703,462.6666666666667)"><text fill="#C4C4C4" stroke="none" font-family="Verdana" font-size="10pt" font-style="normal" font-weight="normal" text-decoration="normal" x="0" y="8" text-anchor="start" dominant-baseline="alphabetic">namespaceNot...                                 </text><path fill="none" stroke="none"/><text fill="none" stroke="#C4C4C4" font-family="Verdana" font-size="10pt" font-style="normal" font-weight="normal" text-decoration="normal" x="0" y="8" text-anchor="start" dominant-baseline="alphabetic" stroke-miterlimit="10" stroke-width="0.7" stroke-dasharray="">namespaceNot...                                 </text></g></g></g></g></svg>